<svg width="22" height="20" viewBox="0 0 22 20" fill="none" xmlns="http://www.w3.org/2000/svg">
<path fill-rule="evenodd" clip-rule="evenodd" d="M8.40123 2.0034C9.55572 0.00228626 12.4439 0.00228554 13.5983 2.0034L20.9527 14.7509C22.1065 16.7509 20.6631 19.2501 18.3541 19.2501H3.64546C1.33649 19.2501 -0.106939 16.7509 1.04691 14.7509L8.40123 2.0034ZM11 7.25C11.4142 7.25 11.75 7.58579 11.75 8V11.75C11.75 12.1642 11.4142 12.5 11 12.5C10.5858 12.5 10.25 12.1642 10.25 11.75V8C10.25 7.58579 10.5858 7.25 11 7.25ZM11 15.5C11.4142 15.5 11.75 15.1642 11.75 14.75C11.75 14.3358 11.4142 14 11 14C10.5858 14 10.25 14.3358 10.25 14.75C10.25 15.1642 10.5858 15.5 11 15.5Z" fill="white"/>
</svg>
